<svg width="313" height="93" viewBox="0 0 313 93" fill="none" xmlns="http://www.w3.org/2000/svg">
<path d="M21.1159 74.3204C18.1496 74.3204 14.9572 73.9182 11.5385 73.1138C8.17002 72.3094 5.53057 71.4296 3.62012 70.4744L4.75131 60.2182C11.3876 63.4358 17.2196 65.0447 22.2471 65.0447C24.9117 65.0447 26.9981 64.5419 28.5063 63.5364C30.0146 62.4806 30.7687 60.9472 30.7687 58.9362C30.7687 57.428 30.3414 56.1962 29.4867 55.241C28.6823 54.2355 27.5008 53.4059 25.9423 52.7524C24.3838 52.0485 21.8951 51.0933 18.4764 49.8867C15.2588 48.7806 12.5942 47.6243 10.4827 46.4177C8.37112 45.1608 6.6869 43.5771 5.43002 41.6667C4.22342 39.706 3.62012 37.3179 3.62012 34.5025C3.62012 29.9777 5.2792 26.3328 8.59736 23.5676C11.9155 20.8025 16.6665 19.4199 22.8504 19.4199C25.7663 19.4199 28.6572 19.7467 31.5228 20.4003C34.4388 21.0539 37.1034 21.8583 39.5166 22.8135L38.5362 32.6926C35.4192 31.3351 32.5535 30.3296 29.9392 29.6761C27.3751 28.9722 24.8111 28.6203 22.2471 28.6203C19.3814 28.6203 17.1944 29.0979 15.6862 30.0531C14.1779 31.0084 13.4238 32.3909 13.4238 34.2008C13.4238 35.6085 13.826 36.7649 14.6304 37.6698C15.4348 38.5748 16.5157 39.3289 17.8731 39.9322C19.2808 40.5355 21.3421 41.2645 24.057 42.1192C30.1403 44.0296 34.5645 46.2417 37.3296 48.7555C40.145 51.219 41.5527 54.6126 41.5527 58.9362C41.5527 63.0588 40.1199 66.6535 37.2542 69.7202C34.3885 72.787 29.0091 74.3204 21.1159 74.3204Z" fill="#ffffff"/>
<path d="M84.4685 60.7461H65.2382L60.8643 73.2646H51.5131L70.2909 20.4757H79.4158L98.1936 73.2646H88.8424L84.4685 60.7461ZM81.452 52.2999L74.8911 33.4467L68.2548 52.2999H81.452Z" fill="#ffffff"/>
<path d="M140.953 44.3816C147.639 46.5434 150.983 51.1687 150.983 58.2575C150.983 62.9834 149.449 66.6786 146.382 69.3432C143.316 71.9575 139.118 73.2646 133.788 73.2646H111.768V20.4757H131.677C141.732 20.4757 146.759 24.724 146.759 33.2205C146.759 38.4491 144.824 42.1694 140.953 44.3816ZM121.421 41.2142H130.244C132.607 41.2142 134.367 40.7366 135.523 39.7814C136.679 38.7759 137.257 37.2425 137.257 35.1812C137.257 33.0194 136.679 31.4608 135.523 30.5056C134.367 29.5504 132.607 29.0728 130.244 29.0728H121.421V41.2142ZM132.356 64.6676C135.171 64.6676 137.308 64.1146 138.766 63.0085C140.274 61.8522 141.028 59.9166 141.028 57.2017C141.028 54.5371 140.249 52.6518 138.69 51.5458C137.182 50.3894 135.07 49.8113 132.356 49.8113H121.421V64.6676H132.356Z" fill="#ffffff"/>
<path d="M166.516 20.4757H176.169V73.2646H166.516V20.4757Z" fill="#ffffff"/>
<path d="M218.191 74.3204C213.213 74.3204 208.739 73.1892 204.767 70.9268C200.846 68.6142 197.754 65.3966 195.491 61.274C193.279 57.1012 192.173 52.2999 192.173 46.8702C192.173 41.4405 193.279 36.6643 195.491 32.5417C197.754 28.3689 200.846 25.1513 204.767 22.8889C208.739 20.5763 213.213 19.4199 218.191 19.4199C223.168 19.4199 227.617 20.5763 231.539 22.8889C235.51 25.1513 238.602 28.3689 240.814 32.5417C243.077 36.6643 244.208 41.4405 244.208 46.8702C244.208 52.2999 243.077 57.1012 240.814 61.274C238.602 65.3966 235.51 68.6142 231.539 70.9268C227.617 73.1892 223.168 74.3204 218.191 74.3204ZM218.191 64.9692C223.319 64.9692 227.24 63.3102 229.955 59.992C232.72 56.6738 234.103 52.2999 234.103 46.8702C234.103 41.4405 232.72 37.0665 229.955 33.7483C227.24 30.4302 223.319 28.7711 218.191 28.7711C213.063 28.7711 209.116 30.4302 206.351 33.7483C203.636 37.0665 202.279 41.4405 202.279 46.8702C202.279 52.2999 203.636 56.6738 206.351 59.992C209.116 63.3102 213.063 64.9692 218.191 64.9692Z" fill="#ffffff"/>
<path id="sabio-logo-asterix" d="M283.924 44.147L269.33 35.6271L274.156 28.3737L287.142 37.3541L286.567 21.811H295.186L294.611 37.3541L307.597 28.3737L312.423 35.6271L297.829 44.147L312.423 52.667L307.597 59.9204L294.611 50.9399L295.186 67.0587H286.567L287.142 50.9399L274.156 59.9204L269.33 52.667L283.924 44.147Z" fill="#ffce06"/>
</svg>
