<svg width="335" height="150" viewBox="0 0 335 150" fill="none" xmlns="http://www.w3.org/2000/svg">
<path d="M192.411 29.115C193.69 30.53 194.331 32.516 194.331 35.075V45.92H189.616V35.614C189.616 34.132 189.233 32.981 188.471 32.162C187.707 31.343 186.662 30.933 185.338 30.933C183.99 30.933 182.914 31.371 182.106 32.246C181.297 33.122 180.893 34.379 180.893 36.017V45.918H176.143V27.262H180.893V31.001C181.387 29.744 182.202 28.761 183.334 28.054C184.466 27.347 185.775 26.993 187.258 26.993C189.413 26.994 191.13 27.702 192.411 29.115Z" fill="black"/>
<path d="M215.884 37.501H202.212C202.278 39.164 202.728 40.387 203.558 41.172C204.388 41.959 205.423 42.35 206.656 42.35C207.756 42.35 208.672 42.08 209.4 41.542C210.13 41.003 210.597 40.274 210.798 39.353H215.816C215.568 40.656 215.041 41.824 214.232 42.856C213.423 43.889 212.386 44.697 211.117 45.281C209.847 45.864 208.439 46.157 206.89 46.157C205.072 46.157 203.454 45.769 202.04 44.995C200.624 44.221 199.524 43.115 198.739 41.678C197.952 40.241 197.561 38.546 197.561 36.592C197.561 34.638 197.954 32.938 198.739 31.49C199.524 30.042 200.624 28.936 202.04 28.173C203.454 27.41 205.071 27.027 206.89 27.027C208.732 27.027 210.341 27.409 211.722 28.173C213.105 28.936 214.171 29.986 214.923 31.321C215.675 32.656 216.052 34.178 216.052 35.884C216.054 36.357 215.995 36.896 215.884 37.501ZM210.076 31.945C209.213 31.158 208.15 30.765 206.894 30.765C205.613 30.765 204.535 31.158 203.66 31.945C202.785 32.731 202.303 33.886 202.213 35.413H211.274C211.337 33.887 210.939 32.731 210.076 31.945Z" fill="black"/>
<path d="M229.388 41.846V45.921H226.896C224.808 45.921 223.208 45.416 222.097 44.405C220.986 43.394 220.429 41.711 220.429 39.353V31.271H217.835V27.263H220.429V22.649H225.177V27.263H229.355V31.271H225.177V39.421C225.177 40.319 225.357 40.949 225.716 41.307C226.075 41.666 226.681 41.846 227.534 41.846H229.388Z" fill="black"/>
<path d="M260.001 27.264L254.983 45.921H249.731L245.721 32.348L241.614 45.921H236.36L231.376 27.264H236.124L239.155 41.678L243.298 27.264H248.316L252.492 41.678L255.556 27.264H260.001Z" fill="black"/>
<path d="M279.568 37.501H265.894C265.96 39.164 266.41 40.387 267.242 41.172C268.072 41.959 269.105 42.35 270.34 42.35C271.44 42.35 272.356 42.08 273.084 41.542C273.814 41.003 274.279 40.274 274.482 39.353H279.5C279.252 40.656 278.725 41.824 277.916 42.856C277.107 43.889 276.07 44.697 274.801 45.281C273.531 45.864 272.123 46.157 270.574 46.157C268.756 46.157 267.138 45.769 265.724 44.995C264.308 44.221 263.208 43.115 262.423 41.678C261.636 40.241 261.243 38.546 261.243 36.592C261.243 34.638 261.638 32.938 262.423 31.49C263.208 30.042 264.308 28.936 265.724 28.173C267.138 27.41 268.755 27.027 270.574 27.027C272.414 27.027 274.025 27.409 275.406 28.173C276.787 28.937 277.853 29.986 278.607 31.321C279.359 32.656 279.736 34.178 279.736 35.884C279.738 36.357 279.681 36.896 279.568 37.501ZM273.759 31.945C272.894 31.158 271.833 30.765 270.575 30.765C269.296 30.765 268.218 31.158 267.343 31.945C266.468 32.731 265.984 33.886 265.896 35.413H274.957C275.023 33.887 274.624 32.731 273.759 31.945Z" fill="black"/>
<path d="M290.445 28.021C291.59 27.336 292.871 26.994 294.285 26.994V32.08H292.904C289.424 32.08 287.685 33.696 287.685 36.929V45.921H282.935V27.264H287.685V30.834C288.38 29.644 289.302 28.707 290.445 28.021Z" fill="black"/>
<path d="M307.656 45.922L301.492 37.773V45.922H296.742V21H301.492V35.01L307.621 27.264H313.246L305.398 36.559L313.447 45.921L307.656 45.922Z" fill="black"/>
<path d="M187.275 68.553C188.386 69.293 189.189 70.293 189.683 71.551V61.413H194.398V86.335H189.683V82.427C189.189 83.686 188.386 84.69 187.275 85.443C186.164 86.195 184.822 86.57 183.252 86.57C181.68 86.57 180.266 86.189 179.008 85.424C177.75 84.661 176.768 83.555 176.061 82.107C175.354 80.66 175 78.96 175 77.005C175 75.052 175.354 73.351 176.061 71.903C176.768 70.455 177.75 69.349 179.008 68.586C180.266 67.823 181.678 67.44 183.252 67.44C184.824 67.44 186.163 67.812 187.275 68.553ZM181.161 73.032C180.265 73.998 179.815 75.323 179.815 77.007C179.815 78.691 180.264 80.011 181.161 80.964C182.059 81.919 183.251 82.396 184.731 82.396C186.169 82.396 187.352 81.908 188.284 80.931C189.216 79.953 189.682 78.646 189.682 77.007C189.682 75.345 189.215 74.027 188.284 73.05C187.353 72.073 186.167 71.585 184.731 71.585C183.251 71.585 182.06 72.067 181.161 73.032Z" fill="black"/>
<path d="M199.652 60.454C200.191 59.971 200.898 59.73 201.775 59.73C202.652 59.73 203.359 59.97 203.898 60.454C204.435 60.937 204.705 61.56 204.705 62.323C204.705 63.064 204.435 63.677 203.898 64.158C203.359 64.641 202.652 64.883 201.775 64.883C200.898 64.883 200.191 64.642 199.652 64.158C199.113 63.678 198.843 63.064 198.843 62.323C198.843 61.561 199.113 60.937 199.652 60.454ZM204.132 67.678V86.335H199.382V67.678H204.132Z" fill="black"/>
<path d="M220.128 68.553C221.251 69.293 222.048 70.293 222.519 71.551V67.678H227.234V86.403C227.234 88.132 226.892 89.687 226.207 91.068C225.522 92.449 224.5 93.533 223.143 94.318C221.784 95.103 220.139 95.497 218.209 95.497C215.516 95.497 213.338 94.857 211.676 93.577C210.016 92.299 209.004 90.558 208.645 88.358H213.325C213.595 89.3 214.118 90.036 214.891 90.564C215.666 91.091 216.659 91.355 217.871 91.355C219.262 91.355 220.385 90.946 221.238 90.126C222.092 89.305 222.517 88.066 222.517 86.404V82.43C222.046 83.689 221.247 84.693 220.126 85.445C219.003 86.197 217.657 86.573 216.085 86.573C214.511 86.573 213.099 86.192 211.841 85.427C210.583 84.663 209.601 83.558 208.894 82.111C208.187 80.663 207.833 78.963 207.833 77.008C207.833 75.053 208.187 73.354 208.894 71.905C209.601 70.458 210.583 69.351 211.841 68.589C213.099 67.825 214.511 67.443 216.085 67.443C217.658 67.443 219.005 67.812 220.128 68.553ZM213.999 73.032C213.101 73.998 212.651 75.323 212.651 77.007C212.651 78.691 213.1 80.011 213.999 80.964C214.897 81.919 216.087 82.396 217.569 82.396C219.005 82.396 220.188 81.908 221.122 80.931C222.054 79.953 222.518 78.646 222.518 77.007C222.518 75.345 222.051 74.027 221.122 73.05C220.188 72.073 219.005 71.585 217.569 71.585C216.087 71.585 214.898 72.067 213.999 73.032Z" fill="black"/>
<path d="M232.152 60.454C232.691 59.971 233.398 59.73 234.275 59.73C235.15 59.73 235.857 59.97 236.396 60.454C236.935 60.938 237.205 61.56 237.205 62.323C237.205 63.064 236.935 63.677 236.396 64.158C235.857 64.641 235.15 64.883 234.275 64.883C233.398 64.883 232.691 64.642 232.152 64.158C231.613 63.678 231.343 63.064 231.343 62.323C231.343 61.561 231.613 60.937 232.152 60.454ZM236.632 67.678V86.335H231.882V67.678H236.632Z" fill="black"/>
<path d="M252.089 82.261V86.335H249.597C247.507 86.335 245.909 85.831 244.798 84.819C243.687 83.809 243.13 82.126 243.13 79.768V71.686H240.536V67.678H243.13V63.064H247.878V67.678H252.054V71.686H247.878V79.836C247.878 80.733 248.058 81.363 248.417 81.721C248.776 82.08 249.382 82.26 250.235 82.26H252.089V82.261Z" fill="black"/>
<path d="M267.177 68.553C268.298 69.293 269.095 70.293 269.566 71.551V67.678H274.281V86.335H269.566V82.427C269.095 83.686 268.298 84.69 267.177 85.443C266.052 86.195 264.706 86.57 263.134 86.57C261.562 86.57 260.148 86.189 258.89 85.424C257.634 84.661 256.652 83.555 255.943 82.107C255.236 80.66 254.882 78.96 254.882 77.005C254.882 75.052 255.236 73.351 255.943 71.903C256.652 70.455 257.634 69.349 258.89 68.586C260.148 67.822 261.562 67.44 263.134 67.44C264.706 67.44 266.054 67.812 267.177 68.553ZM261.046 73.032C260.15 73.998 259.7 75.323 259.7 77.007C259.7 78.691 260.149 80.011 261.046 80.964C261.944 81.919 263.136 82.396 264.616 82.396C266.054 82.396 267.237 81.908 268.169 80.931C269.101 79.953 269.565 78.646 269.565 77.007C269.565 75.345 269.1 74.027 268.169 73.05C267.238 72.073 266.052 71.585 264.616 71.585C263.136 71.585 261.945 72.067 261.046 73.032Z" fill="black"/>
<path d="M289.775 68.553C290.898 69.293 291.695 70.293 292.166 71.551V67.678H296.881V86.335H292.166V82.427C291.693 83.686 290.896 84.69 289.775 85.443C288.652 86.195 287.306 86.57 285.732 86.57C284.16 86.57 282.746 86.189 281.49 85.424C280.232 84.661 279.25 83.555 278.543 82.107C277.836 80.66 277.482 78.96 277.482 77.005C277.482 75.052 277.836 73.351 278.543 71.903C279.25 70.455 280.232 69.349 281.49 68.586C282.746 67.822 284.16 67.44 285.732 67.44C287.306 67.44 288.652 67.812 289.775 68.553ZM283.646 73.032C282.748 73.998 282.298 75.323 282.298 77.007C282.298 78.691 282.747 80.011 283.646 80.964C284.544 81.919 285.734 82.396 287.216 82.396C288.652 82.396 289.835 81.908 290.769 80.931C291.701 79.953 292.165 78.646 292.165 77.007C292.165 75.345 291.698 74.027 290.769 73.05C289.835 72.073 288.652 71.585 287.216 71.585C285.734 71.585 284.544 72.067 283.646 73.032Z" fill="black"/>
<path d="M306.279 61.413V86.335H301.529V61.413H306.279Z" fill="black"/>
<path d="M193.355 118.329H179.681C179.747 119.991 180.197 121.214 181.029 121.999C181.857 122.786 182.892 123.178 184.127 123.178C185.227 123.178 186.141 122.908 186.871 122.37C187.6 121.831 188.066 121.101 188.267 120.181H193.285C193.037 121.484 192.512 122.652 191.701 123.685C190.894 124.717 189.855 125.525 188.586 126.109C187.317 126.693 185.908 126.985 184.359 126.985C182.541 126.985 180.925 126.597 179.509 125.824C178.095 125.049 176.995 123.943 176.208 122.507C175.423 121.07 175.03 119.375 175.03 117.421C175.03 115.467 175.423 113.767 176.208 112.318C176.993 110.871 178.095 109.765 179.509 109.002C180.925 108.238 182.54 107.856 184.359 107.856C186.201 107.856 187.812 108.238 189.193 109.002C190.574 109.766 191.64 110.815 192.392 112.15C193.144 113.484 193.521 115.007 193.521 116.712C193.523 117.185 193.468 117.724 193.355 118.329ZM187.544 112.772C186.681 111.985 185.62 111.592 184.362 111.592C183.081 111.592 182.005 111.985 181.13 112.772C180.255 113.558 179.771 114.713 179.683 116.24H188.742C188.808 114.716 188.41 113.559 187.544 112.772Z" fill="black"/>
<path d="M203.626 108.849C204.771 108.164 206.05 107.822 207.466 107.822V112.908H206.085C202.605 112.908 200.866 114.524 200.866 117.757V126.749H196.116V108.092H200.866V111.662C201.56 110.472 202.48 109.534 203.626 108.849Z" fill="black"/>
<path d="M218.14 105.465C217.579 105.959 217.298 106.824 217.298 108.058V108.093H221.069V112.101H217.298V126.751H212.55V112.101H210.159V108.093H212.55V107.654C212.55 105.431 213.185 103.72 214.452 102.519C215.72 101.317 217.6 100.717 220.093 100.717C220.519 100.717 220.845 100.728 221.07 100.749V104.858C219.677 104.769 218.701 104.972 218.14 105.465Z" fill="black"/>
<path d="M234.812 108.967C235.933 109.707 236.732 110.707 237.203 111.964V108.091H241.916V126.816C241.916 128.545 241.576 130.101 240.889 131.482C240.205 132.863 239.184 133.946 237.827 134.732C236.468 135.517 234.823 135.91 232.893 135.91C230.2 135.91 228.02 135.271 226.36 133.991C224.698 132.712 223.688 130.972 223.329 128.771H228.009C228.279 129.714 228.8 130.449 229.575 130.977C230.348 131.505 231.343 131.769 232.554 131.769C233.947 131.769 235.07 131.359 235.923 130.539C236.776 129.719 237.202 128.479 237.202 126.818V122.843C236.729 124.102 235.932 125.106 234.811 125.859C233.688 126.611 232.342 126.986 230.768 126.986C229.196 126.986 227.782 126.605 226.526 125.841C225.268 125.077 224.286 123.972 223.579 122.524C222.872 121.076 222.518 119.376 222.518 117.421C222.518 115.468 222.872 113.767 223.579 112.319C224.286 110.871 225.268 109.765 226.526 109.003C227.782 108.239 229.196 107.857 230.768 107.857C232.341 107.856 233.687 108.226 234.812 108.967ZM228.681 113.446C227.783 114.411 227.333 115.737 227.333 117.42C227.333 119.105 227.782 120.424 228.681 121.378C229.579 122.333 230.769 122.81 232.251 122.81C233.687 122.81 234.87 122.322 235.804 121.344C236.736 120.366 237.2 119.06 237.2 117.42C237.2 115.759 236.733 114.441 235.804 113.464C234.87 112.487 233.687 111.998 232.251 111.998C230.769 111.998 229.579 112.481 228.681 113.446Z" fill="black"/>
<path d="M258.976 109.001C260.423 109.765 261.562 110.87 262.394 112.317C263.224 113.765 263.64 115.465 263.64 117.42C263.64 119.375 263.224 121.069 262.394 122.506C261.562 123.944 260.423 125.048 258.976 125.823C257.529 126.596 255.894 126.984 254.076 126.984C252.258 126.984 250.625 126.596 249.176 125.823C247.727 125.049 246.588 123.942 245.758 122.506C244.926 121.069 244.512 119.374 244.512 117.42C244.512 115.466 244.926 113.766 245.758 112.317C246.588 110.87 247.729 109.764 249.176 109.001C250.623 108.238 252.258 107.855 254.076 107.855C255.894 107.855 257.527 108.237 258.976 109.001ZM250.706 113.361C249.786 114.294 249.325 115.645 249.325 117.419C249.325 119.193 249.786 120.545 250.706 121.478C251.626 122.41 252.749 122.874 254.073 122.874C255.399 122.874 256.52 122.409 257.442 121.478C258.362 120.545 258.823 119.193 258.823 117.419C258.823 115.645 258.364 114.294 257.442 113.361C256.52 112.429 255.399 111.964 254.073 111.964C252.749 111.964 251.628 112.431 250.706 113.361Z" fill="black"/>
<path d="M284.117 118.329H270.443C270.509 119.991 270.959 121.214 271.791 121.999C272.621 122.786 273.654 123.178 274.889 123.178C275.989 123.178 276.905 122.908 277.633 122.37C278.362 121.831 278.828 121.101 279.029 120.181H284.047C283.801 121.484 283.274 122.652 282.465 123.685C281.656 124.717 280.617 125.525 279.348 126.109C278.079 126.693 276.67 126.985 275.123 126.985C273.303 126.985 271.687 126.597 270.271 125.824C268.857 125.049 267.757 123.943 266.97 122.507C266.185 121.07 265.792 119.375 265.792 117.421C265.792 115.467 266.185 113.767 266.97 112.318C267.755 110.871 268.857 109.765 270.271 109.002C271.687 108.238 273.302 107.856 275.123 107.856C276.963 107.856 278.574 108.238 279.955 109.002C281.336 109.766 282.402 110.815 283.154 112.15C283.908 113.484 284.285 115.007 284.285 116.712C284.285 117.185 284.23 117.724 284.117 118.329ZM278.306 112.772C277.443 111.985 276.382 111.592 275.124 111.592C273.845 111.592 272.767 111.985 271.892 112.772C271.017 113.558 270.533 114.713 270.445 116.24H279.504C279.57 114.716 279.171 113.559 278.306 112.772Z" fill="black"/>
<path d="M299.052 108.967C300.163 109.707 300.966 110.707 301.46 111.964V101.827H306.175V126.748H301.46V122.841C300.966 124.099 300.163 125.103 299.052 125.856C297.941 126.609 296.599 126.984 295.029 126.984C293.457 126.984 292.043 126.603 290.785 125.838C289.527 125.074 288.545 123.968 287.838 122.521C287.131 121.074 286.777 119.373 286.777 117.419C286.777 115.465 287.131 113.765 287.838 112.316C288.545 110.869 289.527 109.762 290.785 108.999C292.043 108.236 293.455 107.854 295.029 107.854C296.601 107.854 297.941 108.226 299.052 108.967ZM292.939 113.446C292.043 114.411 291.593 115.737 291.593 117.42C291.593 119.105 292.042 120.424 292.939 121.378C293.837 122.333 295.029 122.81 296.509 122.81C297.947 122.81 299.13 122.322 300.062 121.344C300.994 120.366 301.458 119.06 301.458 117.42C301.458 115.759 300.991 114.441 300.062 113.464C299.13 112.487 297.945 111.998 296.509 111.998C295.029 111.998 293.837 112.481 292.939 113.446Z" fill="black"/>
<path d="M148.71 72.494H9.93994V77.257H148.71V72.494Z" fill="#0A3DFA"/>
<path d="M105.829 72.0273L147.843 63.6698L146.914 58.9992L104.9 67.3567L105.829 72.0273Z" fill="#0A3DFA"/>
<path d="M104.764 66.9139L144.341 50.5201L142.518 46.1205L102.941 62.5142L104.764 66.9139Z" fill="#0A3DFA"/>
<path d="M102.72 62.1047L138.34 38.304L135.695 34.3452L100.075 58.146L102.72 62.1047Z" fill="#0A3DFA"/>
<path d="M99.786 57.7879L130.073 27.5007L126.706 24.1335L96.4188 54.4207L99.786 57.7879Z" fill="#0A3DFA"/>
<path d="M96.0523 54.1246L119.853 18.5057L115.893 15.8599L92.0927 51.4789L96.0523 54.1246Z" fill="#0A3DFA"/>
<path d="M91.6819 51.2552L108.075 11.679L103.676 9.8566L87.2823 49.4328L91.6819 51.2552Z" fill="#0A3DFA"/>
<path d="M86.8381 49.299L95.1909 7.28644L90.5213 6.35805L82.1685 48.3706L86.8381 49.299Z" fill="#0A3DFA"/>
<path d="M81.7068 5.48999H76.9438V48.323H81.7068V5.48999Z" fill="#0A3DFA"/>
<path d="M71.8192 49.2917L76.4888 48.3628L68.1315 6.34925L63.4619 7.27812L71.8192 49.2917Z" fill="#0A3DFA"/>
<path d="M66.9797 51.253L71.3779 49.4305L54.9803 9.85862L50.5821 11.6811L66.9797 51.253Z" fill="#0A3DFA"/>
<path d="M62.6024 54.1252L66.562 51.4799L42.7661 15.8609L38.8065 18.5062L62.6024 54.1252Z" fill="#0A3DFA"/>
<path d="M58.8672 57.7827L62.2344 54.4155L31.9479 24.129L28.5807 27.4962L58.8672 57.7827Z" fill="#0A3DFA"/>
<path d="M55.928 62.0997L58.5737 58.1401L22.9548 34.3399L20.309 38.2995L55.928 62.0997Z" fill="#0A3DFA"/>
<path d="M53.8905 66.9204L55.7124 62.5208L16.1372 46.1321L14.3152 50.5318L53.8905 66.9204Z" fill="#0A3DFA"/>
<path d="M52.819 72.0465L53.7485 67.3759L11.735 59.0144L10.8054 63.6849L52.819 72.0465Z" fill="#0A3DFA"/>
<path d="M11.7404 90.7448L53.7539 82.3875L52.8248 77.717L10.8113 86.0743L11.7404 90.7448Z" fill="#0A3DFA"/>
<path d="M16.1337 103.624L55.709 87.2306L53.8866 82.831L14.3113 99.2239L16.1337 103.624Z" fill="#0A3DFA"/>
<path d="M22.9523 115.403L58.5713 91.603L55.9255 87.6434L20.3066 111.444L22.9523 115.403Z" fill="#0A3DFA"/>
<path d="M31.9507 125.618L62.2358 95.3329L58.8686 91.9657L28.5835 122.251L31.9507 125.618Z" fill="#0A3DFA"/>
<path d="M42.7554 133.888L66.5557 98.2687L62.5952 95.6224L38.795 131.241L42.7554 133.888Z" fill="#0A3DFA"/>
<path d="M54.9713 139.893L71.3643 100.317L66.9637 98.4945L50.5708 138.07L54.9713 139.893Z" fill="#0A3DFA"/>
<path d="M68.1226 143.382L76.4756 101.368L71.804 100.44L63.451 142.453L68.1226 143.382Z" fill="#0A3DFA"/>
<path d="M81.7068 101.428H76.9438V144.261H81.7068V101.428Z" fill="#0A3DFA"/>
<path d="M90.5164 143.401L95.186 142.472L86.8287 100.458L82.1591 101.387L90.5164 143.401Z" fill="#0A3DFA"/>
<path d="M103.667 139.889L108.065 138.067L91.6682 98.4917L87.2695 100.314L103.667 139.889Z" fill="#0A3DFA"/>
<path d="M115.918 133.89L119.878 131.244L96.0777 95.6289L92.1177 98.2752L115.918 133.89Z" fill="#0A3DFA"/>
<path d="M126.706 125.624L130.073 122.257L99.7862 91.9703L96.419 95.3375L126.706 125.624Z" fill="#0A3DFA"/>
<path d="M135.711 115.403L138.356 111.443L102.737 87.6465L100.091 91.6061L135.711 115.403Z" fill="#0A3DFA"/>
</svg>
