<?xml version="1.0" standalone="no"?>
<!DOCTYPE svg PUBLIC "-//W3C//DTD SVG 20010904//EN"
 "http://www.w3.org/TR/2001/REC-SVG-20010904/DTD/svg10.dtd">
<svg version="1.0" xmlns="http://www.w3.org/2000/svg"
 width="512.000000pt" height="512.000000pt" viewBox="0 0 512.000000 512.000000"
 preserveAspectRatio="xMidYMid meet">
<metadata>
Created by potrace 1.14, written by Peter Selinger 2001-2017
</metadata>
<g transform="translate(0.000000,512.000000) scale(0.100000,-0.100000)"
fill="#000000" stroke="none">
<path d="M2145 4750 c-1 -3 -1 -45 1 -95 1 -49 6 -162 9 -250 3 -88 7 -212 10
-275 6 -165 15 -391 21 -570 12 -333 12 -310 -5 -300 -15 8 -234 159 -257 177
-5 4 -17 13 -26 18 -9 6 -42 28 -75 51 -32 22 -96 67 -143 100 -47 32 -148
102 -223 154 -76 52 -195 134 -265 182 -70 48 -131 91 -137 96 -5 4 -34 25
-64 45 l-55 36 -233 -350 c-129 -193 -233 -353 -231 -355 4 -4 677 -398 733
-429 22 -13 141 -82 264 -154 123 -72 228 -131 233 -131 4 0 8 -4 8 -10 0 -5
4 -10 9 -10 10 0 139 -74 152 -87 7 -7 -303 -194 -614 -372 -23 -13 -80 -46
-127 -74 -79 -46 -235 -137 -305 -177 -44 -25 -349 -203 -354 -206 -2 -2 411
-628 460 -698 4 -4 202 126 440 291 492 340 563 389 708 490 57 40 107 70 111
68 4 -2 6 -30 4 -62 -1 -32 -5 -150 -8 -263 -4 -113 -9 -248 -11 -300 -3 -52
-7 -165 -10 -250 -3 -85 -8 -240 -11 -345 -4 -104 -7 -221 -8 -260 l-1 -70
417 0 418 -1 -5 116 c-3 63 -7 178 -10 255 -4 129 -9 252 -20 555 -2 63 -7
201 -10 305 -4 105 -8 220 -10 257 -1 38 -1 68 2 68 6 0 153 -99 334 -226 44
-30 128 -88 244 -168 33 -23 199 -138 368 -255 170 -117 312 -209 316 -205 19
21 463 695 460 698 -5 4 -1153 672 -1206 702 -22 13 -78 46 -123 73 -81 49
-82 49 -59 64 19 12 961 562 1074 627 77 44 310 182 313 185 2 2 -102 161
-230 354 l-234 350 -145 -99 c-79 -55 -151 -104 -159 -110 -8 -6 -55 -38 -104
-73 -48 -34 -99 -69 -112 -77 -13 -8 -57 -39 -99 -67 -42 -29 -199 -138 -349
-243 -151 -104 -279 -190 -284 -190 -6 0 -9 23 -7 58 2 31 6 145 10 252 3 107
8 238 10 290 3 52 7 163 10 245 10 313 16 463 20 545 2 47 1 90 -3 96 -7 11
-820 15 -827 4z"/>
</g>
</svg>
